<svg xmlns="http://www.w3.org/2000/svg" width="616" height="353" viewBox="0 0 616 353">
  <!-- Steam Main Capsule: The Whispering Figures — Cinematic Crop
       16:9-ish composition, movie-poster treatment.
       Derived from the same Lamplighter's Square scene as the itch.io cover,
       but with tighter crop, more cinematic lighting, logo upper-left (dark variant). -->
  <defs>
    <!-- Sky: amber to near-black indigo -->
    <linearGradient id="skyGrad" x1="0%" y1="0%" x2="0%" y2="100%">
      <stop offset="0%" stop-color="#0A0718"/>
      <stop offset="50%" stop-color="#18100A"/>
      <stop offset="100%" stop-color="#3D1C02"/>
    </linearGradient>

    <!-- Ground -->
    <linearGradient id="groundGrad" x1="0%" y1="0%" x2="0%" y2="100%">
      <stop offset="0%" stop-color="#1C0E02"/>
      <stop offset="100%" stop-color="#0D0A06"/>
    </linearGradient>

    <!-- Lantern warm radial glow — center-left of frame -->
    <radialGradient id="lanternGlow" cx="45%" cy="58%" r="45%">
      <stop offset="0%" stop-color="#FF7A1A" stop-opacity="0.75"/>
      <stop offset="25%" stop-color="#E8821A" stop-opacity="0.40"/>
      <stop offset="60%" stop-color="#FF7A1A" stop-opacity="0.08"/>
      <stop offset="100%" stop-color="#FF7A1A" stop-opacity="0"/>
    </radialGradient>

    <radialGradient id="lanternCore" cx="50%" cy="50%" r="50%">
      <stop offset="0%" stop-color="#FFF0C0"/>
      <stop offset="35%" stop-color="#FF9A30" stop-opacity="0.9"/>
      <stop offset="100%" stop-color="#FF7A1A" stop-opacity="0"/>
    </radialGradient>

    <!-- Right-side indigo vignette to darken flanks -->
    <linearGradient id="rightVignette" x1="0%" y1="0%" x2="100%" y2="0%">
      <stop offset="0%" stop-color="transparent"/>
      <stop offset="55%" stop-color="transparent"/>
      <stop offset="100%" stop-color="#0A0718" stop-opacity="0.85"/>
    </linearGradient>
    <linearGradient id="leftVignette" x1="100%" y1="0%" x2="0%" y2="0%">
      <stop offset="0%" stop-color="transparent"/>
      <stop offset="70%" stop-color="transparent"/>
      <stop offset="100%" stop-color="#0A0718" stop-opacity="0.7"/>
    </linearGradient>
    <!-- Bottom vignette -->
    <linearGradient id="bottomVignette" x1="0%" y1="0%" x2="0%" y2="100%">
      <stop offset="0%" stop-color="transparent"/>
      <stop offset="70%" stop-color="transparent"/>
      <stop offset="100%" stop-color="#0D0A06" stop-opacity="0.5"/>
    </linearGradient>

    <!-- Fog -->
    <linearGradient id="fogGrad" x1="0%" y1="100%" x2="0%" y2="0%">
      <stop offset="0%" stop-color="#FFFFFF" stop-opacity="0.09"/>
      <stop offset="100%" stop-color="#FFFFFF" stop-opacity="0"/>
    </linearGradient>

    <!-- Cloak gradient -->
    <linearGradient id="cloakGrad" x1="0%" y1="0%" x2="0%" y2="100%">
      <stop offset="0%" stop-color="#2A2018"/>
      <stop offset="100%" stop-color="#0D0A06"/>
    </linearGradient>

    <!-- Logo dark plate gradient -->
    <linearGradient id="logoPlateBg" x1="0%" y1="0%" x2="100%" y2="0%">
      <stop offset="0%" stop-color="#0D0A06" stop-opacity="0.95"/>
      <stop offset="100%" stop-color="#0D0A06" stop-opacity="0.75"/>
    </linearGradient>
  </defs>

  <!-- ── Sky ── -->
  <rect width="616" height="353" fill="url(#skyGrad)"/>

  <!-- Stars -->
  <g fill="#F2E8CE" opacity="0.4">
    <circle cx="38" cy="18" r="0.7"/>
    <circle cx="88" cy="10" r="0.5"/>
    <circle cx="150" cy="25" r="0.8"/>
    <circle cx="220" cy="8" r="0.5"/>
    <circle cx="290" cy="22" r="0.6"/>
    <circle cx="360" cy="14" r="0.7"/>
    <circle cx="430" cy="30" r="0.5"/>
    <circle cx="490" cy="9" r="0.7"/>
    <circle cx="555" cy="20" r="0.8"/>
    <circle cx="600" cy="38" r="0.5"/>
    <circle cx="70" cy="48" r="0.5"/>
    <circle cx="180" cy="42" r="0.6"/>
    <circle cx="328" cy="48" r="0.5"/>
    <circle cx="460" cy="42" r="0.6"/>
    <circle cx="530" cy="55" r="0.6"/>
  </g>

  <!-- Ground -->
  <rect x="0" y="150" width="616" height="203" fill="url(#groundGrad)"/>

  <!-- ── Background silhouettes ── -->
  <!-- Far left city wall -->
  <rect x="-5" y="145" width="90" height="25" fill="#120D07"/>
  <rect x="-5" y="135" width="10" height="12" fill="#120D07"/>
  <rect x="15" y="135" width="10" height="12" fill="#120D07"/>
  <rect x="35" y="135" width="10" height="12" fill="#120D07"/>
  <rect x="55" y="135" width="10" height="12" fill="#120D07"/>

  <!-- ── Tavern (left side) ── -->
  <rect x="20" y="155" width="130" height="130" fill="#18100A"/>
  <polygon points="5,155 85,115 165,155" fill="#140D05"/>
  <!-- Tavern windows glowing -->
  <rect x="40" y="165" width="22" height="18" fill="#3A1E04"/>
  <rect x="42" y="167" width="18" height="14" fill="#FF9030" fill-opacity="0.2"/>
  <rect x="82" y="165" width="22" height="18" fill="#3A1E04"/>
  <rect x="84" y="167" width="18" height="14" fill="#FF9030" fill-opacity="0.22"/>
  <rect x="60" y="130" width="18" height="14" fill="#3A1E04"/>
  <rect x="62" y="132" width="14" height="10" fill="#FF9030" fill-opacity="0.15"/>

  <!-- ── Watermill wheel (right background) ── -->
  <g fill="none">
    <!-- Mill building -->
    <rect x="465" y="150" width="90" height="140" fill="#18100A"/>
    <polygon points="452,150 510,110 568,150" fill="#140D05"/>
    <!-- Wheel hub -->
    <circle cx="455" cy="220" r="5" fill="#2A1A08"/>
    <!-- Wheel rim -->
    <circle cx="455" cy="220" r="58" stroke="#221508" stroke-width="7" fill="none"/>
    <!-- Spokes -->
    <g stroke="#221508" stroke-width="5">
      <line x1="455" y1="162" x2="455" y2="278"/>
      <line x1="397" y1="220" x2="513" y2="220"/>
      <line x1="414" y1="179" x2="496" y2="261"/>
      <line x1="496" y1="179" x2="414" y2="261"/>
    </g>
    <!-- One blade catching light -->
    <path d="M 449,162 L 461,162 L 461,185 L 449,185 Z" fill="#FF9030" fill-opacity="0.18"/>
    <!-- Paddles -->
    <rect x="448" y="160" width="14" height="14" fill="#18100A" stroke="#221508" stroke-width="1"/>
    <rect x="507" y="214" width="14" height="12" fill="#18100A" stroke="#221508" stroke-width="1"/>
    <rect x="448" y="246" width="14" height="14" fill="#18100A" stroke="#221508" stroke-width="1"/>
    <rect x="391" y="214" width="14" height="12" fill="#18100A" stroke="#221508" stroke-width="1"/>
  </g>

  <!-- Stone well (center-background) -->
  <g fill="#1A1208">
    <ellipse cx="308" cy="275" rx="18" ry="8" fill="#1E1610"/>
    <rect x="290" y="250" width="36" height="27" fill="#1A1208"/>
    <rect x="290" y="242" width="36" height="10" fill="#201810" rx="1"/>
    <rect x="292" y="212" width="3" height="32" fill="#201810"/>
    <rect x="331" y="212" width="3" height="32" fill="#201810"/>
    <polygon points="286,212 308,198 332,212" fill="#181008"/>
  </g>

  <!-- ── Lantern glow — dominant light source (center-left) ── -->
  <ellipse cx="275" cy="285" rx="220" ry="160" fill="url(#lanternGlow)"/>
  <ellipse cx="275" cy="280" rx="90" ry="70" fill="#FF7A1A" fill-opacity="0.12"/>

  <!-- Lantern post -->
  <rect x="272" y="215" width="5" height="110" fill="#2A1A08"/>
  <rect x="270" y="320" width="9" height="7" fill="#2A1A08"/>
  <!-- Lantern housing -->
  <rect x="264" y="200" width="22" height="18" fill="#3A2810" rx="2"/>
  <rect x="266" y="202" width="18" height="14" fill="#FF9030" fill-opacity="0.8" rx="1"/>
  <ellipse cx="275" cy="209" rx="6" ry="5" fill="url(#lanternCore)"/>
  <polygon points="261,200 274.5,190 290,200" fill="#2A1A08"/>

  <!-- ── Two whispering figures, slightly left of center, in deep shadow ── -->
  <!-- Figure LEFT -->
  <g transform="translate(218, 280)">
    <path d="M 0,0 L -18,95 L 18,95 L 14,0 Z" fill="url(#cloakGrad)"/>
    <!-- Right-edge lantern rim -->
    <path d="M 14,0 L 18,95 L 12,95 L 8,0 Z" fill="#FF7A1A" fill-opacity="0.18"/>
    <ellipse cx="7" cy="-4" rx="15" ry="9" fill="#1C1410"/>
    <ellipse cx="7" cy="-17" rx="11" ry="14" fill="#161008"/>
    <!-- Arm raised -->
    <path d="M 18,12 Q 36,4 44,-8" fill="none" stroke="#1C1410" stroke-width="8" stroke-linecap="round"/>
    <circle cx="44" cy="-8" r="3.5" fill="#1C1410"/>
    <path d="M -18,95 Q -12,99 -6,95 Q 0,99 6,95 Q 12,99 18,95" fill="none" stroke="#161008" stroke-width="1.5"/>
  </g>

  <!-- Figure RIGHT -->
  <g transform="translate(330, 275)">
    <path d="M 0,0 L -18,100 L 18,100 L 14,0 Z" fill="url(#cloakGrad)"/>
    <!-- Left-edge lantern rim -->
    <path d="M -18,0 L -14,100 L -8,100 L -4,0 Z" fill="#FF7A1A" fill-opacity="0.15"/>
    <ellipse cx="-2" cy="-4" rx="15" ry="9" fill="#1C1410"/>
    <ellipse cx="-2" cy="-17" rx="11" ry="14" fill="#161008"/>
    <!-- Hand near ear -->
    <path d="M -16,12 Q -32,6 -40,-6" fill="none" stroke="#1C1410" stroke-width="7" stroke-linecap="round"/>
    <circle cx="-40" cy="-6" r="3.5" fill="#1C1410"/>
    <path d="M -18,100 Q -12,104 -6,100 Q 0,104 6,100 Q 12,104 18,100" fill="none" stroke="#161008" stroke-width="1.5"/>
  </g>

  <!-- ── Fog ── -->
  <rect x="0" y="310" width="616" height="43" fill="url(#fogGrad)"/>
  <ellipse cx="100" cy="335" rx="140" ry="18" fill="#FFFFFF" fill-opacity="0.035"/>
  <ellipse cx="490" cy="340" rx="160" ry="16" fill="#FFFFFF" fill-opacity="0.03"/>

  <!-- ── Cinematic vignettes ── -->
  <rect width="616" height="353" fill="url(#rightVignette)"/>
  <rect width="616" height="353" fill="url(#leftVignette)"/>
  <rect width="616" height="353" fill="url(#bottomVignette)"/>

  <!-- ── Logo: dark variant, upper-left ── -->
  <!-- Dark plate -->
  <rect x="18" y="16" width="205" height="60" rx="3" fill="url(#logoPlateBg)"/>
  <rect x="18" y="16" width="205" height="60" rx="3" fill="none" stroke="#C8A96E" stroke-width="0.5" stroke-opacity="0.3"/>
  <!-- Quill hint -->
  <line x1="22" y1="68" x2="218" y2="22"
        stroke="#C8A96E" stroke-opacity="0.18" stroke-width="1.5"/>
  <text x="118" y="46"
        font-family="Georgia, 'Palatino Linotype', 'Times New Roman', serif"
        font-size="22" font-weight="bold" letter-spacing="4"
        text-anchor="middle" fill="#F2E8CE">RUMOR</text>
  <text x="118" y="68"
        font-family="Georgia, 'Palatino Linotype', 'Times New Roman', serif"
        font-size="20" font-weight="bold" letter-spacing="8"
        text-anchor="middle" fill="#F2E8CE">MILL</text>
</svg>
